# xmcd
#
# Track frame offsets:
#	182
#	15692
#	30517
#	45490
#	57197
#	69535
#	84632
#	97095
#	109087
#	120712
#	133625
#
# Disc length: 1989 seconds
#
# Revision: 4
# Processed by: cddbd v1.5.2PL0 Copyright (c) Steve Scherf et al.
# Submitted via: audiograbber 1.83.01
#
DISCID=8f07c30b
DTITLE=Edwin Starr - Motown Legends - War - Twenty-Five Miles
DYEAR=1900
DGENRE=Oldies
TTITLE0=War
TTITLE1=You've Made Me So Very Happy
TTITLE2=Soul Master
TTITLE3=Oh How Happy
TTITLE4=Way Over There
TTITLE5=Twenty-Five Miles
TTITLE6=Gonna Keep On Tryin' Till I Win Your Love
TTITLE7=Ooo Baby Baby
TTITLE8=You Beat Me To The Punch
TTITLE9=At Last (I Found A Love)
TTITLE10=Cloud Nine
EXTD=
EXTT0=
EXTT1=
EXTT2=
EXTT3=
EXTT4=
EXTT5=
EXTT6=
EXTT7=
EXTT8=
EXTT9=
EXTT10=
PLAYORDER=
